# xmcd
#
# Track frame offsets: 
#        150
#        12335
#        27282
#        43785
#        59452
#
# Disc length: 957 seconds
#
# Revision: 3
# Processed by: cddbd v1.5.2PL0 Copyright (c) Steve Scherf et al.
# Submitted via: ExactAudioCopy v1.0b3
#
DISCID=3b03bb05
DTITLE=????? - ??????
DYEAR=2008
DGENRE=Pop
TTITLE0=???????
TTITLE1=LOVE?????
TTITLE2=?????
TTITLE3=?????????
TTITLE4=????
EXTD=YEAR: 2008
EXTT0=
EXTT1=
EXTT2=
EXTT3=
EXTT4=
PLAYORDER=
